<mxfile host="app.diagrams.net" agent="Mozilla/5.0 (Windows NT 10.0; Win64; x64) AppleWebKit/537.36 (KHTML, like Gecko) Chrome/134.0.0.0 Safari/537.36 OPR/119.0.0.0" version="27.1.6">
  <diagram name="PÃ¡gina-1" id="tT_PuMGkme6JgrerA0NC">
    <mxGraphModel dx="1969" dy="812" grid="1" gridSize="10" guides="1" tooltips="1" connect="1" arrows="1" fold="1" page="1" pageScale="1" pageWidth="827" pageHeight="1169" math="0" shadow="0">
      <root>
        <mxCell id="0" />
        <mxCell id="1" parent="0" />
        <mxCell id="6l9VA6hZa9uN_EuhGzY8-78" value="" style="verticalLabelPosition=bottom;verticalAlign=top;html=1;shape=mxgraph.flowchart.or;" vertex="1" parent="1">
          <mxGeometry x="520" y="1250" width="70" height="70" as="geometry" />
        </mxCell>
        <mxCell id="6l9VA6hZa9uN_EuhGzY8-1" value="tb_lote" style="shape=table;startSize=30;container=1;collapsible=1;childLayout=tableLayout;fixedRows=1;rowLines=0;fontStyle=1;align=center;resizeLast=1;html=1;" vertex="1" parent="1">
          <mxGeometry x="30" y="100" width="180" height="150" as="geometry" />
        </mxCell>
        <mxCell id="6l9VA6hZa9uN_EuhGzY8-2" value="" style="shape=tableRow;horizontal=0;startSize=0;swimlaneHead=0;swimlaneBody=0;fillColor=none;collapsible=0;dropTarget=0;points=[[0,0.5],[1,0.5]];portConstraint=eastwest;top=0;left=0;right=0;bottom=1;" vertex="1" parent="6l9VA6hZa9uN_EuhGzY8-1">
          <mxGeometry y="30" width="180" height="30" as="geometry" />
        </mxCell>
        <mxCell id="6l9VA6hZa9uN_EuhGzY8-3" value="PK" style="shape=partialRectangle;connectable=0;fillColor=none;top=0;left=0;bottom=0;right=0;fontStyle=1;overflow=hidden;whiteSpace=wrap;html=1;" vertex="1" parent="6l9VA6hZa9uN_EuhGzY8-2">
          <mxGeometry width="30" height="30" as="geometry">
            <mxRectangle width="30" height="30" as="alternateBounds" />
          </mxGeometry>
        </mxCell>
        <mxCell id="6l9VA6hZa9uN_EuhGzY8-4" value="UniqueID" style="shape=partialRectangle;connectable=0;fillColor=none;top=0;left=0;bottom=0;right=0;align=left;spacingLeft=6;fontStyle=5;overflow=hidden;whiteSpace=wrap;html=1;" vertex="1" parent="6l9VA6hZa9uN_EuhGzY8-2">
          <mxGeometry x="30" width="150" height="30" as="geometry">
            <mxRectangle width="150" height="30" as="alternateBounds" />
          </mxGeometry>
        </mxCell>
        <mxCell id="6l9VA6hZa9uN_EuhGzY8-5" value="" style="shape=tableRow;horizontal=0;startSize=0;swimlaneHead=0;swimlaneBody=0;fillColor=none;collapsible=0;dropTarget=0;points=[[0,0.5],[1,0.5]];portConstraint=eastwest;top=0;left=0;right=0;bottom=0;" vertex="1" parent="6l9VA6hZa9uN_EuhGzY8-1">
          <mxGeometry y="60" width="180" height="30" as="geometry" />
        </mxCell>
        <mxCell id="6l9VA6hZa9uN_EuhGzY8-6" value="" style="shape=partialRectangle;connectable=0;fillColor=none;top=0;left=0;bottom=0;right=0;editable=1;overflow=hidden;whiteSpace=wrap;html=1;" vertex="1" parent="6l9VA6hZa9uN_EuhGzY8-5">
          <mxGeometry width="30" height="30" as="geometry">
            <mxRectangle width="30" height="30" as="alternateBounds" />
          </mxGeometry>
        </mxCell>
        <mxCell id="6l9VA6hZa9uN_EuhGzY8-7" value="Row 1" style="shape=partialRectangle;connectable=0;fillColor=none;top=0;left=0;bottom=0;right=0;align=left;spacingLeft=6;overflow=hidden;whiteSpace=wrap;html=1;" vertex="1" parent="6l9VA6hZa9uN_EuhGzY8-5">
          <mxGeometry x="30" width="150" height="30" as="geometry">
            <mxRectangle width="150" height="30" as="alternateBounds" />
          </mxGeometry>
        </mxCell>
        <mxCell id="6l9VA6hZa9uN_EuhGzY8-8" value="" style="shape=tableRow;horizontal=0;startSize=0;swimlaneHead=0;swimlaneBody=0;fillColor=none;collapsible=0;dropTarget=0;points=[[0,0.5],[1,0.5]];portConstraint=eastwest;top=0;left=0;right=0;bottom=0;" vertex="1" parent="6l9VA6hZa9uN_EuhGzY8-1">
          <mxGeometry y="90" width="180" height="30" as="geometry" />
        </mxCell>
        <mxCell id="6l9VA6hZa9uN_EuhGzY8-9" value="" style="shape=partialRectangle;connectable=0;fillColor=none;top=0;left=0;bottom=0;right=0;editable=1;overflow=hidden;whiteSpace=wrap;html=1;" vertex="1" parent="6l9VA6hZa9uN_EuhGzY8-8">
          <mxGeometry width="30" height="30" as="geometry">
            <mxRectangle width="30" height="30" as="alternateBounds" />
          </mxGeometry>
        </mxCell>
        <mxCell id="6l9VA6hZa9uN_EuhGzY8-10" value="Row 2" style="shape=partialRectangle;connectable=0;fillColor=none;top=0;left=0;bottom=0;right=0;align=left;spacingLeft=6;overflow=hidden;whiteSpace=wrap;html=1;" vertex="1" parent="6l9VA6hZa9uN_EuhGzY8-8">
          <mxGeometry x="30" width="150" height="30" as="geometry">
            <mxRectangle width="150" height="30" as="alternateBounds" />
          </mxGeometry>
        </mxCell>
        <mxCell id="6l9VA6hZa9uN_EuhGzY8-11" value="" style="shape=tableRow;horizontal=0;startSize=0;swimlaneHead=0;swimlaneBody=0;fillColor=none;collapsible=0;dropTarget=0;points=[[0,0.5],[1,0.5]];portConstraint=eastwest;top=0;left=0;right=0;bottom=0;" vertex="1" parent="6l9VA6hZa9uN_EuhGzY8-1">
          <mxGeometry y="120" width="180" height="30" as="geometry" />
        </mxCell>
        <mxCell id="6l9VA6hZa9uN_EuhGzY8-12" value="" style="shape=partialRectangle;connectable=0;fillColor=none;top=0;left=0;bottom=0;right=0;editable=1;overflow=hidden;whiteSpace=wrap;html=1;" vertex="1" parent="6l9VA6hZa9uN_EuhGzY8-11">
          <mxGeometry width="30" height="30" as="geometry">
            <mxRectangle width="30" height="30" as="alternateBounds" />
          </mxGeometry>
        </mxCell>
        <mxCell id="6l9VA6hZa9uN_EuhGzY8-13" value="Row 3" style="shape=partialRectangle;connectable=0;fillColor=none;top=0;left=0;bottom=0;right=0;align=left;spacingLeft=6;overflow=hidden;whiteSpace=wrap;html=1;" vertex="1" parent="6l9VA6hZa9uN_EuhGzY8-11">
          <mxGeometry x="30" width="150" height="30" as="geometry">
            <mxRectangle width="150" height="30" as="alternateBounds" />
          </mxGeometry>
        </mxCell>
        <mxCell id="6l9VA6hZa9uN_EuhGzY8-14" value="tb_movinv" style="shape=table;startSize=30;container=1;collapsible=1;childLayout=tableLayout;fixedRows=1;rowLines=0;fontStyle=1;align=center;resizeLast=1;html=1;" vertex="1" parent="1">
          <mxGeometry x="290" y="100" width="180" height="150" as="geometry" />
        </mxCell>
        <mxCell id="6l9VA6hZa9uN_EuhGzY8-15" value="" style="shape=tableRow;horizontal=0;startSize=0;swimlaneHead=0;swimlaneBody=0;fillColor=none;collapsible=0;dropTarget=0;points=[[0,0.5],[1,0.5]];portConstraint=eastwest;top=0;left=0;right=0;bottom=1;" vertex="1" parent="6l9VA6hZa9uN_EuhGzY8-14">
          <mxGeometry y="30" width="180" height="30" as="geometry" />
        </mxCell>
        <mxCell id="6l9VA6hZa9uN_EuhGzY8-16" value="PK" style="shape=partialRectangle;connectable=0;fillColor=none;top=0;left=0;bottom=0;right=0;fontStyle=1;overflow=hidden;whiteSpace=wrap;html=1;" vertex="1" parent="6l9VA6hZa9uN_EuhGzY8-15">
          <mxGeometry width="30" height="30" as="geometry">
            <mxRectangle width="30" height="30" as="alternateBounds" />
          </mxGeometry>
        </mxCell>
        <mxCell id="6l9VA6hZa9uN_EuhGzY8-17" value="UniqueID" style="shape=partialRectangle;connectable=0;fillColor=none;top=0;left=0;bottom=0;right=0;align=left;spacingLeft=6;fontStyle=5;overflow=hidden;whiteSpace=wrap;html=1;" vertex="1" parent="6l9VA6hZa9uN_EuhGzY8-15">
          <mxGeometry x="30" width="150" height="30" as="geometry">
            <mxRectangle width="150" height="30" as="alternateBounds" />
          </mxGeometry>
        </mxCell>
        <mxCell id="6l9VA6hZa9uN_EuhGzY8-18" value="" style="shape=tableRow;horizontal=0;startSize=0;swimlaneHead=0;swimlaneBody=0;fillColor=none;collapsible=0;dropTarget=0;points=[[0,0.5],[1,0.5]];portConstraint=eastwest;top=0;left=0;right=0;bottom=0;" vertex="1" parent="6l9VA6hZa9uN_EuhGzY8-14">
          <mxGeometry y="60" width="180" height="30" as="geometry" />
        </mxCell>
        <mxCell id="6l9VA6hZa9uN_EuhGzY8-19" value="" style="shape=partialRectangle;connectable=0;fillColor=none;top=0;left=0;bottom=0;right=0;editable=1;overflow=hidden;whiteSpace=wrap;html=1;" vertex="1" parent="6l9VA6hZa9uN_EuhGzY8-18">
          <mxGeometry width="30" height="30" as="geometry">
            <mxRectangle width="30" height="30" as="alternateBounds" />
          </mxGeometry>
        </mxCell>
        <mxCell id="6l9VA6hZa9uN_EuhGzY8-20" value="Row 1" style="shape=partialRectangle;connectable=0;fillColor=none;top=0;left=0;bottom=0;right=0;align=left;spacingLeft=6;overflow=hidden;whiteSpace=wrap;html=1;" vertex="1" parent="6l9VA6hZa9uN_EuhGzY8-18">
          <mxGeometry x="30" width="150" height="30" as="geometry">
            <mxRectangle width="150" height="30" as="alternateBounds" />
          </mxGeometry>
        </mxCell>
        <mxCell id="6l9VA6hZa9uN_EuhGzY8-21" value="" style="shape=tableRow;horizontal=0;startSize=0;swimlaneHead=0;swimlaneBody=0;fillColor=none;collapsible=0;dropTarget=0;points=[[0,0.5],[1,0.5]];portConstraint=eastwest;top=0;left=0;right=0;bottom=0;" vertex="1" parent="6l9VA6hZa9uN_EuhGzY8-14">
          <mxGeometry y="90" width="180" height="30" as="geometry" />
        </mxCell>
        <mxCell id="6l9VA6hZa9uN_EuhGzY8-22" value="" style="shape=partialRectangle;connectable=0;fillColor=none;top=0;left=0;bottom=0;right=0;editable=1;overflow=hidden;whiteSpace=wrap;html=1;" vertex="1" parent="6l9VA6hZa9uN_EuhGzY8-21">
          <mxGeometry width="30" height="30" as="geometry">
            <mxRectangle width="30" height="30" as="alternateBounds" />
          </mxGeometry>
        </mxCell>
        <mxCell id="6l9VA6hZa9uN_EuhGzY8-23" value="Row 2" style="shape=partialRectangle;connectable=0;fillColor=none;top=0;left=0;bottom=0;right=0;align=left;spacingLeft=6;overflow=hidden;whiteSpace=wrap;html=1;" vertex="1" parent="6l9VA6hZa9uN_EuhGzY8-21">
          <mxGeometry x="30" width="150" height="30" as="geometry">
            <mxRectangle width="150" height="30" as="alternateBounds" />
          </mxGeometry>
        </mxCell>
        <mxCell id="6l9VA6hZa9uN_EuhGzY8-24" value="" style="shape=tableRow;horizontal=0;startSize=0;swimlaneHead=0;swimlaneBody=0;fillColor=none;collapsible=0;dropTarget=0;points=[[0,0.5],[1,0.5]];portConstraint=eastwest;top=0;left=0;right=0;bottom=0;" vertex="1" parent="6l9VA6hZa9uN_EuhGzY8-14">
          <mxGeometry y="120" width="180" height="30" as="geometry" />
        </mxCell>
        <mxCell id="6l9VA6hZa9uN_EuhGzY8-25" value="" style="shape=partialRectangle;connectable=0;fillColor=none;top=0;left=0;bottom=0;right=0;editable=1;overflow=hidden;whiteSpace=wrap;html=1;" vertex="1" parent="6l9VA6hZa9uN_EuhGzY8-24">
          <mxGeometry width="30" height="30" as="geometry">
            <mxRectangle width="30" height="30" as="alternateBounds" />
          </mxGeometry>
        </mxCell>
        <mxCell id="6l9VA6hZa9uN_EuhGzY8-26" value="Row 3" style="shape=partialRectangle;connectable=0;fillColor=none;top=0;left=0;bottom=0;right=0;align=left;spacingLeft=6;overflow=hidden;whiteSpace=wrap;html=1;" vertex="1" parent="6l9VA6hZa9uN_EuhGzY8-24">
          <mxGeometry x="30" width="150" height="30" as="geometry">
            <mxRectangle width="150" height="30" as="alternateBounds" />
          </mxGeometry>
        </mxCell>
        <mxCell id="6l9VA6hZa9uN_EuhGzY8-27" value="tb_obsmov" style="shape=table;startSize=30;container=1;collapsible=1;childLayout=tableLayout;fixedRows=1;rowLines=0;fontStyle=1;align=center;resizeLast=1;html=1;" vertex="1" parent="1">
          <mxGeometry x="690" y="100" width="180" height="150" as="geometry" />
        </mxCell>
        <mxCell id="6l9VA6hZa9uN_EuhGzY8-28" value="" style="shape=tableRow;horizontal=0;startSize=0;swimlaneHead=0;swimlaneBody=0;fillColor=none;collapsible=0;dropTarget=0;points=[[0,0.5],[1,0.5]];portConstraint=eastwest;top=0;left=0;right=0;bottom=1;" vertex="1" parent="6l9VA6hZa9uN_EuhGzY8-27">
          <mxGeometry y="30" width="180" height="30" as="geometry" />
        </mxCell>
        <mxCell id="6l9VA6hZa9uN_EuhGzY8-29" value="PK" style="shape=partialRectangle;connectable=0;fillColor=none;top=0;left=0;bottom=0;right=0;fontStyle=1;overflow=hidden;whiteSpace=wrap;html=1;" vertex="1" parent="6l9VA6hZa9uN_EuhGzY8-28">
          <mxGeometry width="30" height="30" as="geometry">
            <mxRectangle width="30" height="30" as="alternateBounds" />
          </mxGeometry>
        </mxCell>
        <mxCell id="6l9VA6hZa9uN_EuhGzY8-30" value="UniqueID" style="shape=partialRectangle;connectable=0;fillColor=none;top=0;left=0;bottom=0;right=0;align=left;spacingLeft=6;fontStyle=5;overflow=hidden;whiteSpace=wrap;html=1;" vertex="1" parent="6l9VA6hZa9uN_EuhGzY8-28">
          <mxGeometry x="30" width="150" height="30" as="geometry">
            <mxRectangle width="150" height="30" as="alternateBounds" />
          </mxGeometry>
        </mxCell>
        <mxCell id="6l9VA6hZa9uN_EuhGzY8-31" value="" style="shape=tableRow;horizontal=0;startSize=0;swimlaneHead=0;swimlaneBody=0;fillColor=none;collapsible=0;dropTarget=0;points=[[0,0.5],[1,0.5]];portConstraint=eastwest;top=0;left=0;right=0;bottom=0;" vertex="1" parent="6l9VA6hZa9uN_EuhGzY8-27">
          <mxGeometry y="60" width="180" height="30" as="geometry" />
        </mxCell>
        <mxCell id="6l9VA6hZa9uN_EuhGzY8-32" value="" style="shape=partialRectangle;connectable=0;fillColor=none;top=0;left=0;bottom=0;right=0;editable=1;overflow=hidden;whiteSpace=wrap;html=1;" vertex="1" parent="6l9VA6hZa9uN_EuhGzY8-31">
          <mxGeometry width="30" height="30" as="geometry">
            <mxRectangle width="30" height="30" as="alternateBounds" />
          </mxGeometry>
        </mxCell>
        <mxCell id="6l9VA6hZa9uN_EuhGzY8-33" value="Row 1" style="shape=partialRectangle;connectable=0;fillColor=none;top=0;left=0;bottom=0;right=0;align=left;spacingLeft=6;overflow=hidden;whiteSpace=wrap;html=1;" vertex="1" parent="6l9VA6hZa9uN_EuhGzY8-31">
          <mxGeometry x="30" width="150" height="30" as="geometry">
            <mxRectangle width="150" height="30" as="alternateBounds" />
          </mxGeometry>
        </mxCell>
        <mxCell id="6l9VA6hZa9uN_EuhGzY8-34" value="" style="shape=tableRow;horizontal=0;startSize=0;swimlaneHead=0;swimlaneBody=0;fillColor=none;collapsible=0;dropTarget=0;points=[[0,0.5],[1,0.5]];portConstraint=eastwest;top=0;left=0;right=0;bottom=0;" vertex="1" parent="6l9VA6hZa9uN_EuhGzY8-27">
          <mxGeometry y="90" width="180" height="30" as="geometry" />
        </mxCell>
        <mxCell id="6l9VA6hZa9uN_EuhGzY8-35" value="" style="shape=partialRectangle;connectable=0;fillColor=none;top=0;left=0;bottom=0;right=0;editable=1;overflow=hidden;whiteSpace=wrap;html=1;" vertex="1" parent="6l9VA6hZa9uN_EuhGzY8-34">
          <mxGeometry width="30" height="30" as="geometry">
            <mxRectangle width="30" height="30" as="alternateBounds" />
          </mxGeometry>
        </mxCell>
        <mxCell id="6l9VA6hZa9uN_EuhGzY8-36" value="Row 2" style="shape=partialRectangle;connectable=0;fillColor=none;top=0;left=0;bottom=0;right=0;align=left;spacingLeft=6;overflow=hidden;whiteSpace=wrap;html=1;" vertex="1" parent="6l9VA6hZa9uN_EuhGzY8-34">
          <mxGeometry x="30" width="150" height="30" as="geometry">
            <mxRectangle width="150" height="30" as="alternateBounds" />
          </mxGeometry>
        </mxCell>
        <mxCell id="6l9VA6hZa9uN_EuhGzY8-37" value="" style="shape=tableRow;horizontal=0;startSize=0;swimlaneHead=0;swimlaneBody=0;fillColor=none;collapsible=0;dropTarget=0;points=[[0,0.5],[1,0.5]];portConstraint=eastwest;top=0;left=0;right=0;bottom=0;" vertex="1" parent="6l9VA6hZa9uN_EuhGzY8-27">
          <mxGeometry y="120" width="180" height="30" as="geometry" />
        </mxCell>
        <mxCell id="6l9VA6hZa9uN_EuhGzY8-38" value="" style="shape=partialRectangle;connectable=0;fillColor=none;top=0;left=0;bottom=0;right=0;editable=1;overflow=hidden;whiteSpace=wrap;html=1;" vertex="1" parent="6l9VA6hZa9uN_EuhGzY8-37">
          <mxGeometry width="30" height="30" as="geometry">
            <mxRectangle width="30" height="30" as="alternateBounds" />
          </mxGeometry>
        </mxCell>
        <mxCell id="6l9VA6hZa9uN_EuhGzY8-39" value="Row 3" style="shape=partialRectangle;connectable=0;fillColor=none;top=0;left=0;bottom=0;right=0;align=left;spacingLeft=6;overflow=hidden;whiteSpace=wrap;html=1;" vertex="1" parent="6l9VA6hZa9uN_EuhGzY8-37">
          <mxGeometry x="30" width="150" height="30" as="geometry">
            <mxRectangle width="150" height="30" as="alternateBounds" />
          </mxGeometry>
        </mxCell>
        <mxCell id="6l9VA6hZa9uN_EuhGzY8-40" value="tb_proyecto" style="shape=table;startSize=30;container=1;collapsible=1;childLayout=tableLayout;fixedRows=1;rowLines=0;fontStyle=1;align=center;resizeLast=1;html=1;" vertex="1" parent="1">
          <mxGeometry x="280" y="300" width="180" height="150" as="geometry" />
        </mxCell>
        <mxCell id="6l9VA6hZa9uN_EuhGzY8-41" value="" style="shape=tableRow;horizontal=0;startSize=0;swimlaneHead=0;swimlaneBody=0;fillColor=none;collapsible=0;dropTarget=0;points=[[0,0.5],[1,0.5]];portConstraint=eastwest;top=0;left=0;right=0;bottom=1;" vertex="1" parent="6l9VA6hZa9uN_EuhGzY8-40">
          <mxGeometry y="30" width="180" height="30" as="geometry" />
        </mxCell>
        <mxCell id="6l9VA6hZa9uN_EuhGzY8-42" value="PK" style="shape=partialRectangle;connectable=0;fillColor=none;top=0;left=0;bottom=0;right=0;fontStyle=1;overflow=hidden;whiteSpace=wrap;html=1;" vertex="1" parent="6l9VA6hZa9uN_EuhGzY8-41">
          <mxGeometry width="30" height="30" as="geometry">
            <mxRectangle width="30" height="30" as="alternateBounds" />
          </mxGeometry>
        </mxCell>
        <mxCell id="6l9VA6hZa9uN_EuhGzY8-43" value="UniqueID" style="shape=partialRectangle;connectable=0;fillColor=none;top=0;left=0;bottom=0;right=0;align=left;spacingLeft=6;fontStyle=5;overflow=hidden;whiteSpace=wrap;html=1;" vertex="1" parent="6l9VA6hZa9uN_EuhGzY8-41">
          <mxGeometry x="30" width="150" height="30" as="geometry">
            <mxRectangle width="150" height="30" as="alternateBounds" />
          </mxGeometry>
        </mxCell>
        <mxCell id="6l9VA6hZa9uN_EuhGzY8-44" value="" style="shape=tableRow;horizontal=0;startSize=0;swimlaneHead=0;swimlaneBody=0;fillColor=none;collapsible=0;dropTarget=0;points=[[0,0.5],[1,0.5]];portConstraint=eastwest;top=0;left=0;right=0;bottom=0;" vertex="1" parent="6l9VA6hZa9uN_EuhGzY8-40">
          <mxGeometry y="60" width="180" height="30" as="geometry" />
        </mxCell>
        <mxCell id="6l9VA6hZa9uN_EuhGzY8-45" value="" style="shape=partialRectangle;connectable=0;fillColor=none;top=0;left=0;bottom=0;right=0;editable=1;overflow=hidden;whiteSpace=wrap;html=1;" vertex="1" parent="6l9VA6hZa9uN_EuhGzY8-44">
          <mxGeometry width="30" height="30" as="geometry">
            <mxRectangle width="30" height="30" as="alternateBounds" />
          </mxGeometry>
        </mxCell>
        <mxCell id="6l9VA6hZa9uN_EuhGzY8-46" value="Row 1" style="shape=partialRectangle;connectable=0;fillColor=none;top=0;left=0;bottom=0;right=0;align=left;spacingLeft=6;overflow=hidden;whiteSpace=wrap;html=1;" vertex="1" parent="6l9VA6hZa9uN_EuhGzY8-44">
          <mxGeometry x="30" width="150" height="30" as="geometry">
            <mxRectangle width="150" height="30" as="alternateBounds" />
          </mxGeometry>
        </mxCell>
        <mxCell id="6l9VA6hZa9uN_EuhGzY8-47" value="" style="shape=tableRow;horizontal=0;startSize=0;swimlaneHead=0;swimlaneBody=0;fillColor=none;collapsible=0;dropTarget=0;points=[[0,0.5],[1,0.5]];portConstraint=eastwest;top=0;left=0;right=0;bottom=0;" vertex="1" parent="6l9VA6hZa9uN_EuhGzY8-40">
          <mxGeometry y="90" width="180" height="30" as="geometry" />
        </mxCell>
        <mxCell id="6l9VA6hZa9uN_EuhGzY8-48" value="" style="shape=partialRectangle;connectable=0;fillColor=none;top=0;left=0;bottom=0;right=0;editable=1;overflow=hidden;whiteSpace=wrap;html=1;" vertex="1" parent="6l9VA6hZa9uN_EuhGzY8-47">
          <mxGeometry width="30" height="30" as="geometry">
            <mxRectangle width="30" height="30" as="alternateBounds" />
          </mxGeometry>
        </mxCell>
        <mxCell id="6l9VA6hZa9uN_EuhGzY8-49" value="Row 2" style="shape=partialRectangle;connectable=0;fillColor=none;top=0;left=0;bottom=0;right=0;align=left;spacingLeft=6;overflow=hidden;whiteSpace=wrap;html=1;" vertex="1" parent="6l9VA6hZa9uN_EuhGzY8-47">
          <mxGeometry x="30" width="150" height="30" as="geometry">
            <mxRectangle width="150" height="30" as="alternateBounds" />
          </mxGeometry>
        </mxCell>
        <mxCell id="6l9VA6hZa9uN_EuhGzY8-50" value="" style="shape=tableRow;horizontal=0;startSize=0;swimlaneHead=0;swimlaneBody=0;fillColor=none;collapsible=0;dropTarget=0;points=[[0,0.5],[1,0.5]];portConstraint=eastwest;top=0;left=0;right=0;bottom=0;" vertex="1" parent="6l9VA6hZa9uN_EuhGzY8-40">
          <mxGeometry y="120" width="180" height="30" as="geometry" />
        </mxCell>
        <mxCell id="6l9VA6hZa9uN_EuhGzY8-51" value="" style="shape=partialRectangle;connectable=0;fillColor=none;top=0;left=0;bottom=0;right=0;editable=1;overflow=hidden;whiteSpace=wrap;html=1;" vertex="1" parent="6l9VA6hZa9uN_EuhGzY8-50">
          <mxGeometry width="30" height="30" as="geometry">
            <mxRectangle width="30" height="30" as="alternateBounds" />
          </mxGeometry>
        </mxCell>
        <mxCell id="6l9VA6hZa9uN_EuhGzY8-52" value="Row 3" style="shape=partialRectangle;connectable=0;fillColor=none;top=0;left=0;bottom=0;right=0;align=left;spacingLeft=6;overflow=hidden;whiteSpace=wrap;html=1;" vertex="1" parent="6l9VA6hZa9uN_EuhGzY8-50">
          <mxGeometry x="30" width="150" height="30" as="geometry">
            <mxRectangle width="150" height="30" as="alternateBounds" />
          </mxGeometry>
        </mxCell>
        <mxCell id="6l9VA6hZa9uN_EuhGzY8-53" value="" style="strokeWidth=2;html=1;shape=mxgraph.flowchart.start_2;whiteSpace=wrap;" vertex="1" parent="1">
          <mxGeometry x="122.5" y="640" width="110" height="100" as="geometry" />
        </mxCell>
        <mxCell id="6l9VA6hZa9uN_EuhGzY8-72" style="edgeStyle=orthogonalEdgeStyle;rounded=0;orthogonalLoop=1;jettySize=auto;html=1;exitX=0.5;exitY=1;exitDx=0;exitDy=0;entryX=0.5;entryY=0;entryDx=0;entryDy=0;" edge="1" parent="1" source="6l9VA6hZa9uN_EuhGzY8-54" target="6l9VA6hZa9uN_EuhGzY8-61">
          <mxGeometry relative="1" as="geometry" />
        </mxCell>
        <mxCell id="6l9VA6hZa9uN_EuhGzY8-54" value="realizar actualizaciÃ³n tb_lote(salida)&lt;div&gt;tomar Ã­ndice del folio movimiento&lt;/div&gt;&lt;div&gt;actualizar Ã­ndice del folio&lt;br&gt;&lt;div&gt;realizar&amp;nbsp; movimiento de salida por traspaso en tb_movinv&lt;/div&gt;&lt;div&gt;realizar entrada de observaciones en tb_obsmov&lt;/div&gt;&lt;div&gt;&lt;br&gt;&lt;/div&gt;&lt;/div&gt;" style="rounded=1;whiteSpace=wrap;html=1;absoluteArcSize=1;arcSize=14;strokeWidth=2;" vertex="1" parent="1">
          <mxGeometry x="260" y="1130" width="320" height="100" as="geometry" />
        </mxCell>
        <mxCell id="6l9VA6hZa9uN_EuhGzY8-56" value="Subalmacen origen&lt;div&gt;Subalmacen destino&lt;/div&gt;&lt;div&gt;Claves(id de tb_lote y cantidad)&lt;/div&gt;" style="shape=parallelogram;html=1;strokeWidth=2;perimeter=parallelogramPerimeter;whiteSpace=wrap;rounded=1;arcSize=0;size=0.23;" vertex="1" parent="1">
          <mxGeometry x="40" y="780" width="300" height="80" as="geometry" />
        </mxCell>
        <mxCell id="6l9VA6hZa9uN_EuhGzY8-57" style="edgeStyle=orthogonalEdgeStyle;rounded=0;orthogonalLoop=1;jettySize=auto;html=1;exitX=0.5;exitY=1;exitDx=0;exitDy=0;exitPerimeter=0;entryX=0.465;entryY=0.043;entryDx=0;entryDy=0;entryPerimeter=0;" edge="1" parent="1" source="6l9VA6hZa9uN_EuhGzY8-53" target="6l9VA6hZa9uN_EuhGzY8-56">
          <mxGeometry relative="1" as="geometry" />
        </mxCell>
        <mxCell id="6l9VA6hZa9uN_EuhGzY8-59" value="Primer pdf Salida" style="strokeWidth=2;html=1;shape=mxgraph.flowchart.document2;whiteSpace=wrap;size=0.25;" vertex="1" parent="1">
          <mxGeometry x="620" y="1140" width="180" height="80" as="geometry" />
        </mxCell>
        <mxCell id="6l9VA6hZa9uN_EuhGzY8-74" style="edgeStyle=orthogonalEdgeStyle;rounded=0;orthogonalLoop=1;jettySize=auto;html=1;exitX=0.5;exitY=1;exitDx=0;exitDy=0;" edge="1" parent="1" source="6l9VA6hZa9uN_EuhGzY8-61" target="6l9VA6hZa9uN_EuhGzY8-73">
          <mxGeometry relative="1" as="geometry" />
        </mxCell>
        <mxCell id="6l9VA6hZa9uN_EuhGzY8-61" value="realizar entrada de tb_movinv&amp;nbsp; a ubicaciÃ³n &#39;NUEVA&#39;&lt;div&gt;realizar salida de tb_movinv &#39;NUEVA&#39;&lt;/div&gt;" style="rounded=1;whiteSpace=wrap;html=1;absoluteArcSize=1;arcSize=14;strokeWidth=2;fillColor=light-dark(#FFFFFF,#E6D0DE);" vertex="1" parent="1">
          <mxGeometry x="260" y="1270" width="320" height="70" as="geometry" />
        </mxCell>
        <mxCell id="6l9VA6hZa9uN_EuhGzY8-66" style="edgeStyle=orthogonalEdgeStyle;rounded=0;orthogonalLoop=1;jettySize=auto;html=1;exitX=1;exitY=0.5;exitDx=0;exitDy=0;exitPerimeter=0;entryX=0;entryY=0.25;entryDx=0;entryDy=0;" edge="1" parent="1" source="6l9VA6hZa9uN_EuhGzY8-62" target="6l9VA6hZa9uN_EuhGzY8-64">
          <mxGeometry relative="1" as="geometry" />
        </mxCell>
        <mxCell id="6l9VA6hZa9uN_EuhGzY8-62" value="destino == caduco" style="strokeWidth=2;html=1;shape=mxgraph.flowchart.decision;whiteSpace=wrap;" vertex="1" parent="1">
          <mxGeometry x="120" y="890" width="140" height="100" as="geometry" />
        </mxCell>
        <mxCell id="6l9VA6hZa9uN_EuhGzY8-63" style="edgeStyle=orthogonalEdgeStyle;rounded=0;orthogonalLoop=1;jettySize=auto;html=1;exitX=0.5;exitY=1;exitDx=0;exitDy=0;entryX=0.5;entryY=0;entryDx=0;entryDy=0;entryPerimeter=0;" edge="1" parent="1" source="6l9VA6hZa9uN_EuhGzY8-56" target="6l9VA6hZa9uN_EuhGzY8-62">
          <mxGeometry relative="1" as="geometry" />
        </mxCell>
        <mxCell id="6l9VA6hZa9uN_EuhGzY8-64" value="toda la cantidad" style="shape=parallelogram;html=1;strokeWidth=2;perimeter=parallelogramPerimeter;whiteSpace=wrap;rounded=1;arcSize=12;size=0.23;" vertex="1" parent="1">
          <mxGeometry x="360" y="920" width="150" height="60" as="geometry" />
        </mxCell>
        <mxCell id="6l9VA6hZa9uN_EuhGzY8-71" style="edgeStyle=orthogonalEdgeStyle;rounded=0;orthogonalLoop=1;jettySize=auto;html=1;exitX=0.25;exitY=1;exitDx=0;exitDy=0;entryX=0;entryY=0.5;entryDx=0;entryDy=0;" edge="1" parent="1" source="6l9VA6hZa9uN_EuhGzY8-65" target="6l9VA6hZa9uN_EuhGzY8-54">
          <mxGeometry relative="1" as="geometry" />
        </mxCell>
        <mxCell id="6l9VA6hZa9uN_EuhGzY8-65" value="cantidad seleccionada" style="shape=parallelogram;html=1;strokeWidth=2;perimeter=parallelogramPerimeter;whiteSpace=wrap;rounded=1;arcSize=12;size=0.23;" vertex="1" parent="1">
          <mxGeometry x="120" y="1040" width="115" height="80" as="geometry" />
        </mxCell>
        <mxCell id="6l9VA6hZa9uN_EuhGzY8-67" value="SI" style="text;html=1;align=center;verticalAlign=middle;resizable=0;points=[];autosize=1;strokeColor=none;fillColor=none;" vertex="1" parent="1">
          <mxGeometry x="295" y="908" width="30" height="30" as="geometry" />
        </mxCell>
        <mxCell id="6l9VA6hZa9uN_EuhGzY8-68" style="edgeStyle=orthogonalEdgeStyle;rounded=0;orthogonalLoop=1;jettySize=auto;html=1;exitX=0.5;exitY=1;exitDx=0;exitDy=0;exitPerimeter=0;entryX=0.602;entryY=0.087;entryDx=0;entryDy=0;entryPerimeter=0;" edge="1" parent="1" source="6l9VA6hZa9uN_EuhGzY8-62" target="6l9VA6hZa9uN_EuhGzY8-65">
          <mxGeometry relative="1" as="geometry" />
        </mxCell>
        <mxCell id="6l9VA6hZa9uN_EuhGzY8-69" value="NO" style="text;html=1;align=center;verticalAlign=middle;resizable=0;points=[];autosize=1;strokeColor=none;fillColor=none;" vertex="1" parent="1">
          <mxGeometry x="190" y="988" width="40" height="30" as="geometry" />
        </mxCell>
        <mxCell id="6l9VA6hZa9uN_EuhGzY8-70" style="edgeStyle=orthogonalEdgeStyle;rounded=0;orthogonalLoop=1;jettySize=auto;html=1;exitX=0.5;exitY=1;exitDx=0;exitDy=0;entryX=0.544;entryY=0.01;entryDx=0;entryDy=0;entryPerimeter=0;" edge="1" parent="1" source="6l9VA6hZa9uN_EuhGzY8-64" target="6l9VA6hZa9uN_EuhGzY8-54">
          <mxGeometry relative="1" as="geometry" />
        </mxCell>
        <mxCell id="6l9VA6hZa9uN_EuhGzY8-77" style="edgeStyle=orthogonalEdgeStyle;rounded=0;orthogonalLoop=1;jettySize=auto;html=1;exitX=0.5;exitY=1;exitDx=0;exitDy=0;" edge="1" parent="1" source="6l9VA6hZa9uN_EuhGzY8-73" target="6l9VA6hZa9uN_EuhGzY8-76">
          <mxGeometry relative="1" as="geometry" />
        </mxCell>
        <mxCell id="6l9VA6hZa9uN_EuhGzY8-73" value="realizar inserciÃ³n/actualizaciÃ³n tb_lote()&lt;div&gt;tomar Ã­ndice del folio movimiento&lt;/div&gt;&lt;div&gt;actualizar Ã­ndice del folio&lt;br&gt;&lt;div&gt;realizar movimiento de entrada por traspaso en tb_movinv&lt;/div&gt;&lt;div&gt;realizar entrada de observaciones en tb_obsmov&lt;/div&gt;&lt;div&gt;&lt;br&gt;&lt;/div&gt;&lt;/div&gt;" style="rounded=1;whiteSpace=wrap;html=1;absoluteArcSize=1;arcSize=14;strokeWidth=2;" vertex="1" parent="1">
          <mxGeometry x="260" y="1390" width="320" height="100" as="geometry" />
        </mxCell>
        <mxCell id="6l9VA6hZa9uN_EuhGzY8-75" value="Segundo pdf Entrada" style="strokeWidth=2;html=1;shape=mxgraph.flowchart.document2;whiteSpace=wrap;size=0.25;" vertex="1" parent="1">
          <mxGeometry x="620" y="1400" width="180" height="80" as="geometry" />
        </mxCell>
        <mxCell id="6l9VA6hZa9uN_EuhGzY8-76" value="" style="verticalLabelPosition=bottom;verticalAlign=top;html=1;shape=mxgraph.flowchart.on-page_reference;" vertex="1" parent="1">
          <mxGeometry x="355" y="1550" width="130" height="60" as="geometry" />
        </mxCell>
        <mxCell id="6l9VA6hZa9uN_EuhGzY8-103" style="edgeStyle=orthogonalEdgeStyle;rounded=0;orthogonalLoop=1;jettySize=auto;html=1;exitX=0.5;exitY=1;exitDx=0;exitDy=0;entryX=0.5;entryY=0;entryDx=0;entryDy=0;" edge="1" parent="1" source="6l9VA6hZa9uN_EuhGzY8-104" target="6l9VA6hZa9uN_EuhGzY8-121">
          <mxGeometry relative="1" as="geometry">
            <mxPoint x="1470" y="2460" as="targetPoint" />
          </mxGeometry>
        </mxCell>
        <mxCell id="6l9VA6hZa9uN_EuhGzY8-104" value="realizar actualizaciÃ³n tb_lote(salida)&lt;div&gt;&lt;div&gt;realizar&amp;nbsp; movimiento de salida por traspaso en tb_movinv F_DocMov en cero&lt;/div&gt;&lt;div&gt;&lt;br&gt;&lt;/div&gt;&lt;div&gt;&lt;br&gt;&lt;/div&gt;&lt;/div&gt;" style="rounded=1;whiteSpace=wrap;html=1;absoluteArcSize=1;arcSize=14;strokeWidth=2;" vertex="1" parent="1">
          <mxGeometry x="1325" y="2260" width="320" height="100" as="geometry" />
        </mxCell>
        <mxCell id="6l9VA6hZa9uN_EuhGzY8-105" value="Subalmacen origen&lt;div&gt;Subalmacen destino&lt;/div&gt;&lt;div&gt;Claves(id de tb_lote( que ya incluye clave, lote, caducidad, ubicaciÃ³n)y cantidad)&lt;/div&gt;" style="shape=parallelogram;html=1;strokeWidth=2;perimeter=parallelogramPerimeter;whiteSpace=wrap;rounded=1;arcSize=0;size=0.23;" vertex="1" parent="1">
          <mxGeometry x="1040" y="1970" width="400" height="80" as="geometry" />
        </mxCell>
        <mxCell id="6l9VA6hZa9uN_EuhGzY8-110" style="edgeStyle=orthogonalEdgeStyle;rounded=0;orthogonalLoop=1;jettySize=auto;html=1;exitX=1;exitY=0.5;exitDx=0;exitDy=0;exitPerimeter=0;entryX=0;entryY=0.25;entryDx=0;entryDy=0;" edge="1" parent="1" source="6l9VA6hZa9uN_EuhGzY8-111" target="6l9VA6hZa9uN_EuhGzY8-113">
          <mxGeometry relative="1" as="geometry" />
        </mxCell>
        <mxCell id="6l9VA6hZa9uN_EuhGzY8-111" value="destino == caduco" style="strokeWidth=2;html=1;shape=mxgraph.flowchart.decision;whiteSpace=wrap;" vertex="1" parent="1">
          <mxGeometry x="1170" y="2080" width="140" height="100" as="geometry" />
        </mxCell>
        <mxCell id="6l9VA6hZa9uN_EuhGzY8-112" style="edgeStyle=orthogonalEdgeStyle;rounded=0;orthogonalLoop=1;jettySize=auto;html=1;exitX=0.5;exitY=1;exitDx=0;exitDy=0;entryX=0.5;entryY=0;entryDx=0;entryDy=0;entryPerimeter=0;" edge="1" parent="1" source="6l9VA6hZa9uN_EuhGzY8-105" target="6l9VA6hZa9uN_EuhGzY8-111">
          <mxGeometry relative="1" as="geometry" />
        </mxCell>
        <mxCell id="6l9VA6hZa9uN_EuhGzY8-113" value="toda la cantidad" style="shape=parallelogram;html=1;strokeWidth=2;perimeter=parallelogramPerimeter;whiteSpace=wrap;rounded=1;arcSize=12;size=0.23;" vertex="1" parent="1">
          <mxGeometry x="1420" y="2110" width="150" height="60" as="geometry" />
        </mxCell>
        <mxCell id="6l9VA6hZa9uN_EuhGzY8-114" style="edgeStyle=orthogonalEdgeStyle;rounded=0;orthogonalLoop=1;jettySize=auto;html=1;exitX=0.25;exitY=1;exitDx=0;exitDy=0;entryX=0;entryY=0.5;entryDx=0;entryDy=0;" edge="1" parent="1" source="6l9VA6hZa9uN_EuhGzY8-115" target="6l9VA6hZa9uN_EuhGzY8-104">
          <mxGeometry relative="1" as="geometry" />
        </mxCell>
        <mxCell id="6l9VA6hZa9uN_EuhGzY8-115" value="cantidad seleccionada" style="shape=parallelogram;html=1;strokeWidth=2;perimeter=parallelogramPerimeter;whiteSpace=wrap;rounded=1;arcSize=12;size=0.23;" vertex="1" parent="1">
          <mxGeometry x="1172.5" y="2208" width="115" height="80" as="geometry" />
        </mxCell>
        <mxCell id="6l9VA6hZa9uN_EuhGzY8-116" value="SI" style="text;html=1;align=center;verticalAlign=middle;resizable=0;points=[];autosize=1;strokeColor=none;fillColor=none;" vertex="1" parent="1">
          <mxGeometry x="1345" y="2098" width="30" height="30" as="geometry" />
        </mxCell>
        <mxCell id="6l9VA6hZa9uN_EuhGzY8-117" style="edgeStyle=orthogonalEdgeStyle;rounded=0;orthogonalLoop=1;jettySize=auto;html=1;exitX=0.5;exitY=1;exitDx=0;exitDy=0;exitPerimeter=0;entryX=0.602;entryY=0.087;entryDx=0;entryDy=0;entryPerimeter=0;" edge="1" parent="1" source="6l9VA6hZa9uN_EuhGzY8-111" target="6l9VA6hZa9uN_EuhGzY8-115">
          <mxGeometry relative="1" as="geometry" />
        </mxCell>
        <mxCell id="6l9VA6hZa9uN_EuhGzY8-118" value="NO" style="text;html=1;align=center;verticalAlign=middle;resizable=0;points=[];autosize=1;strokeColor=none;fillColor=none;" vertex="1" parent="1">
          <mxGeometry x="1240" y="2178" width="40" height="30" as="geometry" />
        </mxCell>
        <mxCell id="6l9VA6hZa9uN_EuhGzY8-119" style="edgeStyle=orthogonalEdgeStyle;rounded=0;orthogonalLoop=1;jettySize=auto;html=1;exitX=0.5;exitY=1;exitDx=0;exitDy=0;entryX=0.544;entryY=0.01;entryDx=0;entryDy=0;entryPerimeter=0;" edge="1" parent="1" source="6l9VA6hZa9uN_EuhGzY8-113" target="6l9VA6hZa9uN_EuhGzY8-104">
          <mxGeometry relative="1" as="geometry" />
        </mxCell>
        <mxCell id="6l9VA6hZa9uN_EuhGzY8-120" style="edgeStyle=orthogonalEdgeStyle;rounded=0;orthogonalLoop=1;jettySize=auto;html=1;exitX=0.5;exitY=1;exitDx=0;exitDy=0;" edge="1" parent="1" source="6l9VA6hZa9uN_EuhGzY8-121" target="6l9VA6hZa9uN_EuhGzY8-123">
          <mxGeometry relative="1" as="geometry" />
        </mxCell>
        <mxCell id="6l9VA6hZa9uN_EuhGzY8-121" value="realizar inserciÃ³n/actualizaciÃ³n tb_lote()&lt;div&gt;&lt;span style=&quot;background-color: transparent; color: light-dark(rgb(0, 0, 0), rgb(255, 255, 255));&quot;&gt;realizar movimiento de entrada por traspaso en tb_movinv&amp;nbsp;&lt;/span&gt;&lt;span style=&quot;background-color: transparent; color: light-dark(rgb(0, 0, 0), rgb(255, 255, 255));&quot;&gt;F_DocMov en cero&lt;/span&gt;&lt;/div&gt;" style="rounded=1;whiteSpace=wrap;html=1;absoluteArcSize=1;arcSize=14;strokeWidth=2;" vertex="1" parent="1">
          <mxGeometry x="1325" y="2420" width="320" height="100" as="geometry" />
        </mxCell>
        <mxCell id="6l9VA6hZa9uN_EuhGzY8-123" value="" style="verticalLabelPosition=bottom;verticalAlign=top;html=1;shape=mxgraph.flowchart.on-page_reference;" vertex="1" parent="1">
          <mxGeometry x="1420" y="2580" width="130" height="60" as="geometry" />
        </mxCell>
        <mxCell id="6l9VA6hZa9uN_EuhGzY8-125" style="edgeStyle=orthogonalEdgeStyle;rounded=0;orthogonalLoop=1;jettySize=auto;html=1;exitX=0.5;exitY=1;exitDx=0;exitDy=0;exitPerimeter=0;entryX=0.5;entryY=0;entryDx=0;entryDy=0;" edge="1" parent="1" source="6l9VA6hZa9uN_EuhGzY8-124" target="6l9VA6hZa9uN_EuhGzY8-105">
          <mxGeometry relative="1" as="geometry" />
        </mxCell>
        <mxCell id="6l9VA6hZa9uN_EuhGzY8-124" value="" style="verticalLabelPosition=bottom;verticalAlign=top;html=1;shape=mxgraph.flowchart.on-page_reference;" vertex="1" parent="1">
          <mxGeometry x="1176" y="1850" width="130" height="60" as="geometry" />
        </mxCell>
      </root>
    </mxGraphModel>
  </diagram>
</mxfile>
